SplineFontDB: 3.0
FontName: Asabina-Industrial
FullName: Asabina Industrial
FamilyName: Asabina Industrial
Weight: Regular
Copyright: Copyright (c) 2017, Asabina GmbH <type.industrial@asabina.de>
UComments: "A decorative type used in the wordmark for Asabina Gmbh. The type intents to look industrial and resemble some attributes one may find in typefaces associated with sci-fi productions."
FontLog: "2017-9-16: Starting a prototype in FontForge (http://fontforge.org) based on some characters designed in Inkscape"
Version: 0.0.1
ItalicAngle: 0
UnderlinePosition: -202
UnderlineWidth: 101
Ascent: 1416
Descent: 608
InvalidEm: 0
LayerCount: 2
Layer: 0 0 "Back" 1
Layer: 1 0 "Fore" 0
XUID: [1021 1019 -1955934214 2614676]
FSType: 0
OS2Version: 0
OS2_WeightWidthSlopeOnly: 0
OS2_UseTypoMetrics: 1
CreationTime: 1505574909
ModificationTime: 1505676407
PfmFamily: 17
TTFWeight: 400
TTFWidth: 5
LineGap: 182
VLineGap: 0
OS2TypoAscent: 0
OS2TypoAOffset: 1
OS2TypoDescent: 0
OS2TypoDOffset: 1
OS2TypoLinegap: 182
OS2WinAscent: 0
OS2WinAOffset: 1
OS2WinDescent: 0
OS2WinDOffset: 1
HheadAscent: 0
HheadAOffset: 1
HheadDescent: 0
HheadDOffset: 1
OS2Vendor: 'PfEd'
MarkAttachClasses: 1
DEI: 91125
LangName: 1033
Encoding: ISO8859-1
UnicodeInterp: none
NameList: AGL For New Fonts
DisplaySize: -48
AntiAlias: 1
FitToEm: 0
WinInfo: 16 16 7
BeginPrivate: 0
EndPrivate
Grid
2022 2428 m 0
 2022 -1620 l 1024
  Named: "2022"
0 2625 m 0
 0 -1423 l 1024
  Named: "2"
-2024 -606 m 0
 4048 -606 l 1024
  Named: "s3"
-2024 -404 m 0
 4048 -404 l 1024
  Named: "s2"
-2024 -202 m 0
 4048 -202 l 1024
  Named: "s1"
-2024 1414 m 0
 4048 1414 l 1024
  Named: "n7"
-2024 1212 m 0
 4048 1212 l 1024
  Named: "n6"
-2024 1010 m 0
 4048 1010 l 1024
  Named: "n5"
-2024 808 m 0
 4048 808 l 1024
  Named: "n4"
-2023.890625 606 m 0
 4048.109375 606 l 1024
  Named: "n3"
-2024 404 m 0
 4048 404 l 1024
  Named: "n2"
-2024 202 m 0
 4048 202 l 1024
  Named: "n1"
204 2630.86816406 m 0
 204 -1417.13183594 l 1024
  Named: "204"

StartChar: a
Encoding: 97 97 0
Width: 1414
VWidth: 0
Flags: HW
LayerCount: 2
Fore
SplineSet
505 404 m 1
 505 606 l 1
 909 606 l 1
 909 404 l 5
 778.651367188 404 635.349609375 404 505 404 c 1
101 0 m 1
 505 0 909 0 1313 0 c 1
 1313 1010 l 1
 909 1211.99707031 l 1
 909 1010 l 1
 639.689453125 1010 370.310546875 1010 101 1010 c 1
 101 673.333007812 101 336.666992188 101 0 c 1
EndSplineSet
EndChar

StartChar: s
Encoding: 115 115 1
Width: 1414
VWidth: 0
Flags: HW
LayerCount: 2
Fore
SplineSet
101 0 m 29
 1313 0 l 25
 1313 1010 l 17
 1043.66699219 1010 774.333007812 1010 505 1010 c 9
 505 1212 l 17
 360.23828125 1138.17773438 227.58984375 1072.14257812 101 1010 c 9
 101 606 l 25
 909 606 l 25
 909 404 l 17
 639.666992188 404 370.333007812 404 101 404 c 9
 101 0 l 29
EndSplineSet
EndChar

StartChar: b
Encoding: 98 98 2
Width: 1414
VWidth: 0
Flags: HW
LayerCount: 2
Fore
SplineSet
505 606 m 25
 505 404 l 25
 909 404 l 25
 910 606 l 25
 505 606 l 25
101 1414 m 29
 505 1414 l 25
 505 1010 l 25
 1313 1010 l 25
 1313 0 l 25
 101 0 l 25
 101 1414 l 29
EndSplineSet
EndChar

StartChar: i
Encoding: 105 105 3
Width: 606
VWidth: 0
Flags: HW
LayerCount: 2
Fore
SplineSet
101 0 m 25
 505 0 l 25
 505 1010 l 25
 101 1010 l 25
 101 0 l 25
EndSplineSet
EndChar

StartChar: n
Encoding: 110 110 4
Width: 1414
VWidth: 0
Flags: HW
LayerCount: 2
Fore
SplineSet
101 0 m 25
 505 0 l 25
 505 606 l 25
 909 606 l 25
 909 0 l 25
 1313 0 l 25
 1313 1010 l 25
 101 1010 l 25
 101 0 l 25
EndSplineSet
EndChar

StartChar: q
Encoding: 113 113 5
Width: 1416
VWidth: 0
Flags: HW
LayerCount: 2
Fore
SplineSet
505 404 m 25
 505 606 l 25
 909 606 l 25
 909 404 l 25
 505 404 l 25
101 0 m 1
 911 0 l 5
 911 -404 l 1
 1315 -202 l 1
 1313 1010 l 1
 101 1010 l 25
 101 0 l 1
EndSplineSet
EndChar

StartChar: c
Encoding: 99 99 6
Width: 1414
VWidth: 0
Flags: HW
LayerCount: 2
Fore
SplineSet
101 0 m 25
 1313 0 l 29
 1313 404 l 25
 505 404 l 25
 505 606 l 25
 1313 606 l 25
 1313 1010 l 25
 101 1010 l 25
 101 0 l 25
EndSplineSet
EndChar

StartChar: d
Encoding: 100 100 7
Width: 1414
VWidth: 0
Flags: HW
LayerCount: 2
Fore
SplineSet
505 606 m 25
 909 606 l 25
 909 404 l 25
 505 404 l 25
 505 606 l 25
101 0 m 29
 1313 0 l 25
 1313 1414 l 25
 909 1414 l 25
 909 1010 l 25
 101 1010 l 25
 101 0 l 29
EndSplineSet
EndChar

StartChar: e
Encoding: 101 101 8
Width: 1414
VWidth: 0
Flags: HWO
LayerCount: 2
Fore
SplineSet
505 606 m 25
 909 606 l 25
 909 404 l 25
 505 404 l 25
 505 606 l 25
101 0 m 25
 505 -202 l 25
 505 0 l 25
 1313 0 l 25
 1313 1010 l 25
 101 1010 l 25
 101 0 l 25
EndSplineSet
EndChar

StartChar: f
Encoding: 102 102 9
Width: 1414
VWidth: 0
Flags: HW
LayerCount: 2
Fore
SplineSet
101 1010 m 25
 101 -202 l 25
 505 -404 l 29
 505 0 l 25
 909 0 l 25
 909 404 l 25
 505 404 l 25
 505 606 l 25
 1313 606 l 25
 1313 1010 l 25
 101 1010 l 25
EndSplineSet
EndChar

StartChar: g
Encoding: 103 103 10
Width: 1414
VWidth: 0
Flags: HW
LayerCount: 2
Fore
SplineSet
505 404 m 25
 505 606 l 25
 909 606 l 25
 909 404 l 25
 505 404 l 25
101 0 m 1
 505 0 l 25
 505 -202 l 25
 101 -202 l 29
 101 -606 l 25
 1313 -606 l 1
 1313 -202 l 1
 909 -202 l 25
 909 0 l 25
 1313 0 l 1
 1313 1010 l 25
 101 1010 l 1
 101 0 l 1
EndSplineSet
EndChar

StartChar: h
Encoding: 104 104 11
Width: 1414
VWidth: 0
Flags: HW
LayerCount: 2
Fore
SplineSet
101 0 m 25
 505 0 l 29
 505 606 l 25
 909 606 l 25
 909 0 l 25
 1313 0 l 25
 1313 1010 l 25
 505 1010 l 25
 505 1414 l 25
 101 1414 l 25
 101 0 l 25
EndSplineSet
EndChar

StartChar: j
Encoding: 106 106 12
Width: 606
VWidth: 0
Flags: HW
LayerCount: 2
Fore
SplineSet
101 1010 m 25
 101 -404 l 29
 505 -202 l 25
 505 1010 l 25
 101 1010 l 25
EndSplineSet
EndChar

StartChar: k
Encoding: 107 107 13
Width: 1414
VWidth: 0
Flags: HW
LayerCount: 2
Fore
SplineSet
101 0 m 25
 505 0 l 29
 505 606 l 25
 707 606 l 25
 707 0 l 25
 1313 0 l 25
 1313 404 l 25
 1111 404 l 25
 1111 606 l 25
 1313 606 l 25
 1313 1010 l 25
 505 1010 l 25
 505 1414 l 25
 101 1414 l 25
 101 0 l 25
EndSplineSet
EndChar

StartChar: l
Encoding: 108 108 14
Width: 606
VWidth: 0
Flags: HW
LayerCount: 2
Fore
SplineSet
101 0 m 25
 505 0 l 25
 505 1414 l 25
 101 1414 l 29
 101 0 l 25
EndSplineSet
EndChar

StartChar: m
Encoding: 109 109 15
Width: 1818
VWidth: 0
Flags: HW
LayerCount: 2
Fore
SplineSet
101 0 m 29
 505 0 l 29
 505 606 l 29
 707 606 l 29
 707 0 l 29
 1111 0 l 29
 1109 606 l 29
 1311 606 l 29
 1313 0 l 29
 1717 0 l 29
 1717 1010 l 29
 101 1010 l 29
 101 0 l 29
EndSplineSet
EndChar

StartChar: o
Encoding: 111 111 16
Width: 1414
VWidth: 0
Flags: HW
LayerCount: 2
Fore
SplineSet
505 404 m 29
 505 606 l 29
 909 606 l 29
 909 404 l 29
 505 404 l 29
101 0 m 29
 1313 0 l 29
 1313 1010 l 29
 101 1010 l 29
 101 0 l 29
EndSplineSet
EndChar

StartChar: p
Encoding: 112 112 17
Width: 1414
VWidth: 0
Flags: HW
LayerCount: 2
Fore
SplineSet
505 404 m 25
 505 606 l 25
 909 606 l 25
 909 404 l 25
 505 404 l 25
101 -404 m 5
 505 -404 l 1
 505 0 l 1
 1313 0 l 9
 1313 1010 l 25
 101 1010 l 25
 101 -404 l 5
EndSplineSet
EndChar

StartChar: r
Encoding: 114 114 18
Width: 1414
VWidth: 0
Flags: HW
LayerCount: 2
Fore
SplineSet
101 0 m 29
 505 0 l 25
 505 606 l 25
 1313 606 l 25
 1313 1010 l 25
 101 1010 l 25
 101 0 l 29
EndSplineSet
EndChar

StartChar: t
Encoding: 116 116 19
Width: 1414
VWidth: 0
Flags: HW
LayerCount: 2
Fore
SplineSet
101 0 m 9
 1313 0 l 25
 1313 404 l 25
 505 404 l 25
 505 606 l 25
 909 606 l 29
 909 1010 l 25
 505 1010 l 25
 505 1414 l 25
 101 1212 l 17
 101 811.333007812 101 400.666992188 101 0 c 9
EndSplineSet
EndChar

StartChar: u
Encoding: 117 117 20
Width: 1414
VWidth: 0
Flags: HW
LayerCount: 2
Fore
SplineSet
101 0 m 25
 909 0 l 25
 1313 -202 l 25
 1313 1010 l 25
 909 1010 l 29
 909 404 l 25
 505 404 l 25
 505 1010 l 25
 101 1010 l 25
 101 0 l 25
EndSplineSet
EndChar

StartChar: v
Encoding: 118 118 21
Width: 1414
VWidth: 0
Flags: HW
LayerCount: 2
Fore
SplineSet
101 0 m 29
 1313 0 l 25
 1313 1010 l 25
 909 1010 l 25
 909 404 l 25
 505 404 l 25
 505 1010 l 25
 101 1010 l 25
 101 0 l 29
EndSplineSet
EndChar

StartChar: w
Encoding: 119 119 22
Width: 1818
VWidth: 0
Flags: HW
LayerCount: 2
Fore
SplineSet
101 0 m 25
 1717 0 l 29
 1717 1010 l 25
 1313 1010 l 25
 1313 404 l 25
 1111 404 l 25
 1111 1010 l 25
 707 1010 l 25
 707 404 l 25
 505 404 l 25
 505 1010 l 25
 101 1010 l 25
 101 0 l 25
EndSplineSet
EndChar

StartChar: x
Encoding: 120 120 23
Width: 1414
VWidth: 0
Flags: HW
LayerCount: 2
Fore
SplineSet
101 0 m 25
 1313 0 l 25
 1313 404 l 25
 909 404 l 25
 909 606 l 25
 1313 606 l 25
 1313 1010 l 25
 101 1010 l 25
 101 606 l 25
 505 606 l 25
 505 404 l 29
 101 404 l 25
 101 0 l 25
EndSplineSet
EndChar

StartChar: y
Encoding: 121 121 24
Width: 1414
VWidth: 0
Flags: HW
LayerCount: 2
Fore
SplineSet
101 0 m 25
 909 0 l 25
 909 -202 l 25
 505 -202 l 25
 505 -606 l 25
 1313 -606 l 25
 1313 1010 l 25
 909 1010 l 25
 909 404 l 25
 505 404 l 25
 505 1010 l 29
 101 1010 l 25
 101 0 l 25
EndSplineSet
EndChar

StartChar: z
Encoding: 122 122 25
Width: 1414
VWidth: 0
Flags: HW
LayerCount: 2
Fore
SplineSet
1313 1010 m 25
 101 1010 l 25
 101 606 l 25
 505 606 l 25
 101 404 l 25
 101 0 l 25
 1313 0 l 25
 1313 404 l 1
 909 404 l 1
 1313 606 l 1
 1313 1010 l 25
EndSplineSet
EndChar

